<svg xmlns="http://www.w3.org/2000/svg" version="1.2" viewBox="0 0 37 37" width="37" height="37"><style>.a{fill:none;stroke:#4491d7;stroke-linecap:square;stroke-linejoin:round;stroke-width:1.5}.b{fill:none;stroke:#4491d7;stroke-linecap:square;stroke-linejoin:round}.c{fill:none;stroke:#4491d7;stroke-linecap:square;stroke-linejoin:round;stroke-width:1}</style><path class="a" d="m18.5 37c-10.2 0-18.5-8.3-18.5-18.5 0-10.2 8.3-18.5 18.5-18.5 10.2 0 18.5 8.3 18.5 18.5 0 10.2-8.3 18.5-18.5 18.5z"/><path class="a" d="m18.5 37c-5.8 0-10.5-8.3-10.5-18.5 0-10.2 4.7-18.5 10.5-18.5 5.8 0 10.5 8.3 10.5 18.5 0 10.2-4.7 18.5-10.5 18.5z"/><path class="b" d="m4 30h29-29z"/><path class="c" d="m4 7h29-29z"/><path class="a" d="m0 18h37v1h-37z"/><path class="a" d="m18 0h1v37h-1z"/></svg>