<svg xmlns="http://www.w3.org/2000/svg" version="1.2" viewBox="0 0 44 18" width="44" height="18"><style>.a{fill:#4491d7}</style><path class="a" d="m12.6 17h-4.8q-1.4 0-2.1-0.8-0.6-0.8-0.6-2v-8h-4.2v-1.6h3.1q0.6 0 0.9-0.2 0.2-0.3 0.2-0.9v-3.3h1.9v4.4h5.6v1.6h-5.6v9.2h5.6zm15 0h-1.3q-1.1 0-1.6-0.6-0.5-0.6-0.6-1.4h-0.1q-0.5 1-1.4 1.7-0.9 0.6-2.4 0.6-1.9 0-3.1-1.1-1.1-1-1.1-2.7 0-1.7 1.2-2.7 1.3-0.9 4.1-0.9h2.7v-1.2q0-1.4-0.8-2.1-0.8-0.7-2.2-0.7-1.2 0-2 0.5-0.8 0.5-1.3 1.4l-1.3-1q0.2-0.5 0.6-0.9 0.4-0.5 1-0.8 0.6-0.4 1.4-0.6 0.8-0.2 1.7-0.2 2.2 0 3.5 1.1 1.3 1.1 1.3 3.1v6.8h1.7zm-7-1.3q0.7 0 1.3-0.2 0.6-0.2 1.1-0.5 0.4-0.3 0.7-0.7 0.3-0.4 0.3-0.9v-2.1h-2.7q-1.7 0-2.5 0.5-0.8 0.5-0.8 1.4v0.5q0 1 0.7 1.5 0.7 0.5 1.9 0.5zm10 1.3v-1.6h3.7v-9.2h-3.7v-1.6h5.6v3.1h0.1q0.4-1.4 1.5-2.3 1-0.8 2.7-0.8h1.7v1.9h-2.3q-1.7 0-2.7 1-1 0.9-1 2.5v5.4h4.8v1.6z"/></svg>